# xmcd
#
# Track frame offsets: 
#        150
#        14668
#        30585
#        45128
#        60838
#        79634
#        93651
#        107364
#        122722
#        139214
#        151374
#        166547
#
# Disc length: 2435 seconds
#
# Revision: 0
# Processed by: cddbd v1.5.2PL0 Copyright (c) Steve Scherf et al.
# Submitted via: ExactAudioCopyFreeDBPlugin 1.0
#
DISCID=8209810c
DTITLE=Rob Heath - The Trick
DYEAR=2013
DGENRE=Blues
TTITLE0=Thrill Ride Operator
TTITLE1=The Trick
TTITLE2=No Reason to Complain
TTITLE3=Making Love With a Broken Heart
TTITLE4=Glory of God
TTITLE5=Only Dream Worth Coming True
TTITLE6=Low Cut Silk Dress
TTITLE7=Dragonfly
TTITLE8=Little Help Down Here
TTITLE9=Miracle of Creation
TTITLE10=Play On
TTITLE11=Broken
EXTD=
EXTT0=
EXTT1=
EXTT2=
EXTT3=
EXTT4=
EXTT5=
EXTT6=
EXTT7=
EXTT8=
EXTT9=
EXTT10=
EXTT11=
PLAYORDER=
